<?xml version="1.0" encoding="UTF-8"?>
<svg width="512" height="512" viewBox="0 0 512 512" xmlns="http://www.w3.org/2000/svg">
  <defs>
    <linearGradient id="logoGradient" x1="0%" y1="0%" x2="100%" y2="100%">
      <stop offset="0%" style="stop-color:#2196F3"/>
      <stop offset="100%" style="stop-color:#1976D2"/>
    </linearGradient>
  </defs>
  <path fill="url(#logoGradient)" d="M448 112h-50.75c-6.783-19.201-20.387-35.328-38.782-44.938-14.392-7.535-30.021-10.866-45.718-10.866H80c-44.112 0-80 35.888-80 80v240c0 44.112 35.888 80 80 80h368c35.29 0 64-28.71 64-64V176c0-35.29-28.71-64-64-64zM80 96h232.75c10.625 0 21.157 2.335 30.758 6.923 13.619 6.49 23.269 17.833 27.43 31.077H80c-26.467 0-48-21.533-48-48s21.533-48 48-48h232.75c10.625 0 21.157 2.335 30.758 6.923 13.619 6.49 23.269 17.833 27.43 31.077H80zm400 320c0 17.645-14.355 32-32 32H80c-26.467 0-48-21.533-48-48V176c0-26.467 21.533-48 48-48h368c17.645 0 32 14.355 32 32v256z"/>
</svg> 